<svg viewBox="0 0 512 512" xmlns="http://www.w3.org/2000/svg">
  <defs>
    <linearGradient id="bgGrad" x1="0" y1="0" x2="0" y2="1">
      <stop offset="0" stop-color="#23272E"/>
      <stop offset="1" stop-color="#14161A"/>
    </linearGradient>
    <linearGradient id="glowGrad" x1="0" y1="0" x2="1" y2="0">
      <stop offset="0" stop-color="#7B5CFF" stop-opacity="0.22"/>
      <stop offset="0.5" stop-color="#4DA3FF" stop-opacity="0.10"/>
      <stop offset="1" stop-color="#26E0C2" stop-opacity="0.16"/>
    </linearGradient>
  </defs>
  <rect width="512" height="512" rx="108" fill="url(#bgGrad)"/>
  <rect width="512" height="512" rx="108" fill="url(#glowGrad)"/>
  <g fill="#FFFFFF" transform="translate(256 256) scale(0.82) translate(-256 -236)">
    <rect x="53"  y="292" width="26" height="64"  rx="13"/>
    <rect x="91"  y="252" width="26" height="104" rx="13"/>
    <rect x="129" y="204" width="26" height="152" rx="13"/>
    <rect x="167" y="156" width="26" height="200" rx="13"/>
    <rect x="205" y="116" width="26" height="240" rx="13"/>
    <rect x="243" y="140" width="26" height="216" rx="13"/>
    <rect x="281" y="116" width="26" height="240" rx="13"/>
    <rect x="319" y="156" width="26" height="200" rx="13"/>
    <rect x="357" y="204" width="26" height="152" rx="13"/>
    <rect x="395" y="252" width="26" height="104" rx="13"/>
    <rect x="433" y="292" width="26" height="64"  rx="13"/>
  </g>
</svg>
